<?xml version="1.0" standalone="no"?>
<!DOCTYPE svg PUBLIC "-//W3C//DTD SVG 20010904//EN"
 "http://www.w3.org/TR/2001/REC-SVG-20010904/DTD/svg10.dtd">
<svg version="1.0" xmlns="http://www.w3.org/2000/svg"
 width="300.000000pt" height="300.000000pt" viewBox="0 0 300.000000 300.000000"
 preserveAspectRatio="xMidYMid meet">
<metadata>
Created by potrace 1.10, written by Peter Selinger 2001-2011
</metadata>
<g transform="translate(0.000000,300.000000) scale(0.100000,-0.100000)"
fill="#000000" stroke="none">
<path d="M837 1945 c-54 -19 -111 -75 -77 -75 6 0 10 6 10 13 0 19 77 60 101
54 10 -3 17 -1 14 3 -3 5 5 11 17 13 22 4 22 4 -2 5 -14 1 -42 -5 -63 -13z"/>
<path d="M1045 1953 c22 -2 46 -11 53 -20 7 -10 12 -12 12 -5 0 7 10 13 23 13
40 2 -34 17 -83 16 l-45 0 40 -4z"/>
<path d="M994 1918 c3 -10 -2 -18 -12 -21 -12 -3 -11 -5 5 -6 12 0 29 -11 37
-23 9 -12 16 -17 16 -11 0 6 -6 18 -13 25 -7 7 -19 22 -26 33 -9 14 -11 15 -7
3z"/>
<path d="M1880 1911 c0 -16 18 -22 26 -10 5 8 34 10 93 6 51 -3 74 -2 56 3
-43 11 -175 12 -175 1z"/>
<path d="M2150 1872 c42 -20 54 -32 53 -47 -1 -11 0 -14 3 -7 9 20 24 14 25
-10 1 -19 2 -19 6 -5 6 24 -23 55 -72 78 -63 29 -76 21 -15 -9z"/>
<path d="M1992 1859 c-9 -14 -20 -18 -35 -15 -12 3 -16 3 -9 0 6 -3 12 -13 12
-22 1 -15 2 -15 11 1 5 9 20 17 32 18 12 0 17 3 10 5 -7 3 -9 12 -6 20 8 21 0
17 -15 -7z"/>
<path d="M1741 1819 c-18 -28 -30 -53 -28 -56 3 -3 15 13 26 35 11 22 27 42
36 44 8 2 11 8 7 15 -5 8 -19 -5 -41 -38z"/>
<path d="M783 1822 c-9 -6 -7 -16 7 -40 26 -42 26 -42 -12 -43 -32 -2 -33 -2
-4 -6 40 -6 53 10 33 41 -9 14 -14 32 -11 40 7 18 4 19 -13 8z"/>
<path d="M1350 1804 c-79 -12 -147 -31 -245 -69 -60 -24 -138 -49 -172 -55
l-62 -12 35 -47 c45 -59 51 -62 104 -50 56 13 112 -7 160 -56 l34 -35 396 0
c389 0 395 0 408 21 7 11 32 29 55 40 l42 19 -70 2 c-114 4 -177 -1 -236 -18
l-56 -16 -114 35 c-63 19 -139 40 -170 47 l-57 13 -26 66 c-14 37 -26 70 -26
75 0 15 153 -3 220 -25 34 -11 101 -38 148 -60 46 -21 87 -39 91 -39 19 0
-118 80 -192 112 -73 32 -193 61 -232 56 -5 0 -21 -2 -35 -4z m-12 -96 c11
-29 23 -60 26 -68 6 -14 -4 -15 -76 -9 -46 4 -97 13 -113 19 -89 35 -86 29
-30 58 57 29 120 50 151 51 17 1 26 -11 42 -51z m-240 -53 c45 -38 107 -56
207 -60 91 -4 221 -30 285 -57 l35 -15 -55 -7 c-30 -3 -121 -5 -202 -4 l-147
3 -33 31 c-50 48 -76 58 -158 64 -92 6 -102 26 -25 52 65 21 59 22 93 -7z"/>
<path d="M2216 1765 c-3 -9 -10 -13 -16 -10 -5 3 -10 -2 -10 -13 0 -11 -9 -31
-20 -45 l-20 -25 23 -6 c12 -3 46 -6 76 -6 50 0 53 -1 48 -22 -6 -22 -6 -23 9
-3 13 17 17 18 37 6 21 -13 21 -12 5 5 -13 13 -37 19 -85 22 -97 5 -97 5 -62
57 17 25 29 48 26 51 -2 3 -7 -2 -11 -11z"/>
<path d="M662 1739 c-19 -4 -39 -12 -45 -19 -9 -8 -4 -8 16 1 24 11 30 10 38
-2 5 -8 9 -9 9 -2 0 6 15 13 33 15 29 3 30 4 7 9 -14 3 -40 2 -58 -2z"/>
<path d="M555 1690 c-32 -8 -27 -12 16 -14 18 -1 25 3 22 11 -3 7 -6 12 -7 12
0 -1 -14 -5 -31 -9z"/>
<path d="M762 1681 c1 -6 23 -35 48 -65 32 -39 54 -57 78 -62 18 -3 35 -5 37
-3 9 10 -113 128 -138 134 -18 3 -28 2 -25 -4z"/>
<path d="M582 1583 c16 -42 34 -102 40 -134 5 -33 14 -59 20 -59 5 0 7 8 4 18
-20 61 -35 135 -30 143 3 5 1 9 -5 9 -5 0 -17 20 -27 45 -9 25 -20 48 -24 50
-4 3 6 -30 22 -72z"/>
<path d="M1475 1628 c22 -5 90 -23 152 -40 110 -29 114 -30 159 -14 76 26 238
22 351 -9 51 -13 116 -37 145 -51 30 -15 47 -20 40 -12 -17 21 -135 74 -207
93 -33 9 -111 19 -172 22 -92 5 -121 3 -158 -11 -42 -16 -50 -16 -122 -2 -78
17 -116 32 -53 22 92 -14 130 -16 156 -9 27 7 25 8 -21 14 -27 4 -108 7 -180
7 -105 0 -122 -2 -90 -10z"/>
<path d="M767 1560 c11 -119 24 -153 63 -172 35 -17 207 -45 216 -35 3 3 -16
12 -43 21 -26 9 -72 30 -100 46 -47 27 -58 40 -98 118 l-45 87 7 -65z"/>
<path d="M2386 1603 c-13 -13 -5 -21 16 -15 18 4 20 2 14 -13 -7 -18 -6 -18
14 0 11 10 19 19 18 20 -10 7 -56 13 -62 8z"/>
<path d="M2207 1513 c-4 -4 14 -18 40 -32 76 -41 68 -91 -13 -91 -25 0 -44 -5
-44 -11 0 -12 160 -2 174 12 15 13 -23 59 -80 97 -49 32 -65 38 -77 25z"/>
<path d="M1013 1480 c-58 -26 -54 -40 11 -40 51 0 55 -2 75 -35 l20 -35 -20
-35 c-20 -34 -23 -35 -81 -35 -65 0 -69 -11 -12 -35 66 -27 121 -20 154 19 11
14 64 16 428 16 l415 0 35 -27 c19 -14 46 -27 60 -29 28 -3 122 33 122 47 0 4
-26 9 -57 11 -55 3 -59 5 -77 39 l-20 36 23 31 c20 29 27 32 77 32 30 0 54 4
54 9 0 11 -92 51 -118 51 -11 0 -36 -13 -57 -30 l-38 -30 -416 0 -416 1 -35
29 c-39 34 -67 36 -127 10z m136 -40 c25 -19 42 -20 446 -18 418 3 420 3 452
26 17 12 40 22 52 22 19 0 19 -1 -4 -24 -43 -43 -45 -106 -5 -146 11 -11 20
-23 20 -26 0 -9 -43 7 -72 27 -24 18 -52 19 -443 19 l-416 0 -45 -26 c-43 -26
-77 -25 -42 0 24 18 40 65 33 96 -4 14 -18 38 -33 54 l-27 29 29 -7 c15 -4 40
-16 55 -26z"/>
<path d="M711 1347 c-1 -15 -8 -18 -35 -16 -19 2 -39 0 -43 -5 -12 -13 140 -1
162 13 20 12 20 12 0 7 -72 -18 -73 -18 -78 1 -5 17 -5 17 -6 0z"/>
<path d="M1401 1239 c-23 -37 -26 -49 -12 -49 11 0 45 70 37 77 -3 3 -14 -10
-25 -28z"/>
<path d="M1517 1235 c9 -19 20 -35 24 -35 13 0 -11 58 -26 64 -11 4 -11 -2 2
-29z"/>
<path d="M756 1221 c-17 -19 -17 -20 16 -23 31 -3 33 -6 36 -42 3 -35 2 -38
-12 -27 -9 8 -16 25 -16 38 0 22 -2 24 -15 13 -22 -18 -17 -175 5 -175 12 0
14 10 11 45 -1 25 0 42 5 37 4 -4 20 5 36 20 36 34 38 80 5 111 -29 27 -49 28
-71 3z"/>
<path d="M1157 1212 c-35 -36 -34 -61 3 -97 20 -19 30 -39 30 -58 0 -25 -2
-27 -14 -17 -8 6 -16 24 -18 38 -2 16 -9 27 -18 27 -21 0 -14 -65 11 -90 18
-19 19 -19 49 10 39 37 38 63 -5 105 -19 19 -35 42 -35 53 0 26 24 16 28 -12
4 -25 20 -24 36 2 9 13 5 22 -15 42 l-25 25 -27 -28z"/>
<path d="M1685 1220 c-17 -19 -17 -20 0 -20 14 0 15 -3 5 -14 -14 -18 -15
-165 -1 -179 18 -18 29 3 23 48 -4 36 -2 45 11 45 12 0 17 -12 19 -47 3 -40 6
-48 23 -48 12 0 19 6 17 13 -1 8 -3 51 -4 95 0 68 -4 86 -21 105 -25 27 -48
28 -72 2z m53 -58 c2 -24 -1 -32 -12 -32 -12 0 -16 10 -16 36 0 45 24 42 28
-4z"/>
<path d="M877 1223 c-4 -3 -7 -12 -7 -20 0 -15 26 -18 34 -4 7 11 -18 33 -27
24z"/>
<path d="M965 1200 c-3 -5 -3 -15 0 -20 4 -6 -4 -20 -17 -31 l-23 -21 23 5
c21 5 22 2 22 -58 0 -78 16 -97 51 -59 17 18 19 23 6 18 -15 -5 -17 1 -17 45
0 44 4 56 27 76 l28 23 -27 -5 c-20 -4 -28 0 -33 16 -7 22 -29 28 -40 11z"/>
<path d="M1285 1200 c-3 -5 -3 -15 0 -20 4 -6 -4 -20 -17 -31 l-23 -21 23 5
c21 5 22 2 22 -59 0 -71 17 -92 48 -60 10 10 12 16 4 16 -8 0 -12 18 -12 50 0
43 4 55 27 75 l28 23 -27 -5 c-20 -4 -28 0 -33 16 -7 22 -29 28 -40 11z"/>
<path d="M1951 1197 c-6 -8 -8 -17 -4 -20 3 -4 -5 -16 -18 -27 l-24 -21 25 3
c23 3 24 1 21 -44 -4 -79 17 -111 49 -73 9 10 9 15 1 15 -7 0 -11 20 -11 50 0
43 4 55 27 75 l28 23 -26 -5 c-20 -4 -27 0 -32 16 -6 24 -20 27 -36 8z"/>
<path d="M875 1159 c-12 -18 -5 -141 7 -157 21 -25 33 6 30 76 -4 68 -22 107
-37 81z"/>
<path d="M1427 1142 c-32 -34 -38 -104 -10 -134 16 -18 17 -18 45 9 23 22 28
35 28 73 0 33 -6 52 -18 63 -17 16 -20 15 -45 -11z m31 -41 c5 -32 -7 -73 -18
-66 -15 9 -13 98 3 93 6 -3 13 -15 15 -27z"/>
<path d="M1515 1159 c-4 -6 -7 -59 -6 -118 2 -119 14 -147 46 -111 10 11 13
20 7 20 -21 0 -13 46 13 70 32 30 36 107 6 134 -13 12 -21 14 -26 6 -5 -8 -10
-8 -20 0 -10 8 -15 8 -20 -1z m55 -85 c0 -24 -4 -44 -10 -44 -5 0 -10 23 -10
51 0 31 4 48 10 44 6 -3 10 -26 10 -51z"/>
<path d="M1804 1159 c-12 -21 -4 -123 12 -140 9 -10 28 -16 47 -15 l32 2 -3
69 c-4 77 -16 103 -38 84 -11 -9 -18 -8 -28 0 -11 9 -16 9 -22 0z m56 -80 c0
-27 -4 -49 -10 -49 -11 0 -13 8 -12 65 1 50 0 47 12 40 6 -3 10 -28 10 -56z"/>
<path d="M2087 1142 c-32 -34 -38 -104 -10 -134 16 -18 17 -18 45 9 23 22 28
35 28 73 0 33 -6 52 -18 63 -17 16 -20 15 -45 -11z m31 -66 c2 -36 0 -47 -10
-44 -8 3 -14 24 -16 52 -2 36 0 47 10 44 8 -3 14 -24 16 -52z"/>
<path d="M2197 1142 l-27 -28 25 -24 c14 -13 25 -33 25 -44 -1 -20 -1 -20 -14
-3 -12 15 -15 16 -26 2 -11 -13 -10 -19 5 -35 18 -20 19 -20 47 7 31 30 36 54
13 73 -14 12 -14 15 0 30 14 15 13 18 -3 33 -17 16 -20 15 -45 -11z"/>
</g>
</svg>
